<svg width="22" height="16" viewBox="0 0 22 16" fill="none" xmlns="http://www.w3.org/2000/svg">
<path d="M1.13658 0.00540915C0.783078 0.0619695 0.466522 0.256642 0.256553 0.5466C0.0465829 0.836558 -0.0396016 1.19805 0.0169588 1.55155C0.0735192 1.90506 0.268191 2.22161 0.55815 2.43158C0.848108 2.64155 1.2096 2.72773 1.5631 2.67117H5.56175L5.80167 3.33762L6.89463 6.66982L7.9876 10.002C8.09423 10.3486 8.54741 10.6685 8.89396 10.6685H18.2241C18.5973 10.6685 19.0239 10.3486 19.1305 10.002L21.2898 3.33762C21.3964 2.99107 21.2365 2.67117 20.8632 2.67117H9.02725L8.01425 0.751823C7.90636 0.531523 7.73977 0.345269 7.53281 0.213572C7.32586 0.0818753 7.08658 0.00984369 6.84132 0.00540915L1.50979 0.00540915C1.42998 -0.00180305 1.34968 -0.00180305 1.26987 0.00540915C1.2166 0.00220735 1.16319 0.00220735 1.10992 0.00540915L1.13658 0.00540915ZM9.5604 13.3342C8.81398 13.3342 8.22752 13.9207 8.22752 14.6671C8.22752 15.4135 8.81398 16 9.5604 16C10.3068 16 10.8933 15.4135 10.8933 14.6671C10.8933 13.9207 10.3068 13.3342 9.5604 13.3342ZM17.5577 13.3342C16.8113 13.3342 16.2248 13.9207 16.2248 14.6671C16.2248 15.4135 16.8113 16 17.5577 16C18.3041 16 18.8906 15.4135 18.8906 14.6671C18.8906 13.9207 18.3041 13.3342 17.5577 13.3342Z" fill="#495057"/>
</svg>
