<svg width="22" height="22" viewBox="0 0 22 22" fill="none" xmlns="http://www.w3.org/2000/svg">
<mask id="path-1-inside-1_1_226" fill="white">
<path d="M0 0H22V22H0V0Z"/>
</mask>
<path d="M0 22H-3V25H0V22ZM22 19H0V25H22V19ZM3 22V0H-3V22H3Z" fill="#FA7921" mask="url(#path-1-inside-1_1_226)"/>
<path d="M4.95949 1.00473C4.66107 1.05422 4.39383 1.22456 4.21658 1.47827C4.03932 1.73199 3.96657 2.04829 4.01432 2.35761C4.06206 2.66692 4.2264 2.94391 4.47118 3.12763C4.71596 3.31136 5.02113 3.38677 5.31956 3.33728H8.69518L8.89772 3.92041L9.82039 6.83609L10.7431 9.75178C10.8331 10.055 11.2156 10.3349 11.5082 10.3349H19.3846C19.6997 10.3349 20.0598 10.055 20.1498 9.75178L21.9726 3.92041C22.0626 3.61718 21.9276 3.33728 21.6126 3.33728H11.6207L10.7656 1.65785C10.6745 1.46508 10.5338 1.30211 10.3591 1.18688C10.1844 1.07164 9.98243 1.00861 9.77538 1.00473L5.27455 1.00473C5.20717 0.998422 5.13939 0.998422 5.07201 1.00473C5.02704 1.00193 4.98195 1.00193 4.93699 1.00473L4.95949 1.00473ZM12.0708 12.6675C11.4407 12.6675 10.9456 13.1806 10.9456 13.8337C10.9456 14.4868 11.4407 15 12.0708 15C12.7009 15 13.196 14.4868 13.196 13.8337C13.196 13.1806 12.7009 12.6675 12.0708 12.6675ZM18.822 12.6675C18.1919 12.6675 17.6968 13.1806 17.6968 13.8337C17.6968 14.4868 18.1919 15 18.822 15C19.4522 15 19.9473 14.4868 19.9473 13.8337C19.9473 13.1806 19.4522 12.6675 18.822 12.6675Z" fill="#FA7921"/>
</svg>
